<mxfile host="app.diagrams.net" modified="2021-05-16T13:05:57.546Z" agent="5.0 (Macintosh; Intel Mac OS X 10_15_6) AppleWebKit/605.1.15 (KHTML, like Gecko) Version/14.0.3 Safari/605.1.15" etag="pIT82eYFc5kpuoHjV5FB" version="14.6.13" type="github">
  <diagram name="Page-1" id="ad52d381-51e7-2e0d-a935-2d0ddd2fd229">
    <mxGraphModel dx="2066" dy="1185" grid="1" gridSize="10" guides="1" tooltips="1" connect="1" arrows="1" fold="1" page="1" pageScale="1" pageWidth="1100" pageHeight="850" background="#ffffff" math="0" shadow="0">
      <root>
        <mxCell id="0" />
        <mxCell id="1" parent="0" />
        <mxCell id="2c924340bb9dbf6c-1" value="IssuingAuthority" style="whiteSpace=wrap;html=1;rounded=1;shadow=1;comic=0;labelBackgroundColor=none;strokeWidth=2;fontFamily=Verdana;fontSize=12;align=center;arcSize=50;" parent="1" vertex="1">
          <mxGeometry x="20" y="60" width="130" height="20" as="geometry" />
        </mxCell>
        <mxCell id="kLmcpJNhUuurr8Ud9r-Z-85" style="edgeStyle=none;rounded=0;orthogonalLoop=1;jettySize=auto;html=1;exitX=1;exitY=0.5;exitDx=0;exitDy=0;entryX=0;entryY=0.5;entryDx=0;entryDy=0;endArrow=none;endFill=0;" edge="1" parent="1" source="2c924340bb9dbf6c-2" target="2c924340bb9dbf6c-3">
          <mxGeometry relative="1" as="geometry" />
        </mxCell>
        <mxCell id="kLmcpJNhUuurr8Ud9r-Z-110" style="edgeStyle=none;rounded=0;orthogonalLoop=1;jettySize=auto;html=1;exitX=0;exitY=1;exitDx=0;exitDy=0;entryX=1;entryY=0.5;entryDx=0;entryDy=0;endArrow=none;endFill=0;" edge="1" parent="1" source="2c924340bb9dbf6c-2" target="2c924340bb9dbf6c-9">
          <mxGeometry relative="1" as="geometry" />
        </mxCell>
        <mxCell id="kLmcpJNhUuurr8Ud9r-Z-111" style="edgeStyle=none;rounded=0;orthogonalLoop=1;jettySize=auto;html=1;exitX=0;exitY=0.5;exitDx=0;exitDy=0;entryX=1;entryY=0.5;entryDx=0;entryDy=0;endArrow=none;endFill=0;" edge="1" parent="1" source="2c924340bb9dbf6c-2" target="2c924340bb9dbf6c-8">
          <mxGeometry relative="1" as="geometry" />
        </mxCell>
        <mxCell id="kLmcpJNhUuurr8Ud9r-Z-112" style="edgeStyle=none;rounded=0;orthogonalLoop=1;jettySize=auto;html=1;exitX=0;exitY=0;exitDx=0;exitDy=0;entryX=1;entryY=0.5;entryDx=0;entryDy=0;endArrow=none;endFill=0;" edge="1" parent="1" source="2c924340bb9dbf6c-2" target="2c924340bb9dbf6c-1">
          <mxGeometry relative="1" as="geometry" />
        </mxCell>
        <mxCell id="kLmcpJNhUuurr8Ud9r-Z-113" style="edgeStyle=none;rounded=0;orthogonalLoop=1;jettySize=auto;html=1;exitX=0.5;exitY=0;exitDx=0;exitDy=0;entryX=1;entryY=0.5;entryDx=0;entryDy=0;endArrow=none;endFill=0;" edge="1" parent="1" source="2c924340bb9dbf6c-2" target="2c924340bb9dbf6c-10">
          <mxGeometry relative="1" as="geometry" />
        </mxCell>
        <mxCell id="2c924340bb9dbf6c-2" value="Identifications" style="ellipse;whiteSpace=wrap;html=1;rounded=1;shadow=1;comic=0;labelBackgroundColor=none;strokeWidth=2;fontFamily=Verdana;fontSize=12;align=center;" parent="1" vertex="1">
          <mxGeometry x="150" y="70" width="120" height="80" as="geometry" />
        </mxCell>
        <mxCell id="kLmcpJNhUuurr8Ud9r-Z-83" style="edgeStyle=none;rounded=0;orthogonalLoop=1;jettySize=auto;html=1;entryX=0.5;entryY=0;entryDx=0;entryDy=0;endArrow=none;endFill=0;" edge="1" parent="1" source="2c924340bb9dbf6c-3" target="kLmcpJNhUuurr8Ud9r-Z-72">
          <mxGeometry relative="1" as="geometry" />
        </mxCell>
        <mxCell id="kLmcpJNhUuurr8Ud9r-Z-114" style="edgeStyle=none;rounded=0;orthogonalLoop=1;jettySize=auto;html=1;exitX=0;exitY=1;exitDx=0;exitDy=0;entryX=0.75;entryY=0;entryDx=0;entryDy=0;endArrow=none;endFill=0;" edge="1" parent="1" source="2c924340bb9dbf6c-3" target="kLmcpJNhUuurr8Ud9r-Z-8">
          <mxGeometry relative="1" as="geometry" />
        </mxCell>
        <mxCell id="kLmcpJNhUuurr8Ud9r-Z-115" style="edgeStyle=none;rounded=0;orthogonalLoop=1;jettySize=auto;html=1;endArrow=none;endFill=0;" edge="1" parent="1" source="2c924340bb9dbf6c-3" target="2c924340bb9dbf6c-14">
          <mxGeometry relative="1" as="geometry" />
        </mxCell>
        <mxCell id="kLmcpJNhUuurr8Ud9r-Z-116" style="edgeStyle=none;rounded=0;orthogonalLoop=1;jettySize=auto;html=1;endArrow=none;endFill=0;" edge="1" parent="1" source="2c924340bb9dbf6c-3" target="2c924340bb9dbf6c-15">
          <mxGeometry relative="1" as="geometry" />
        </mxCell>
        <mxCell id="kLmcpJNhUuurr8Ud9r-Z-117" style="edgeStyle=none;rounded=0;orthogonalLoop=1;jettySize=auto;html=1;endArrow=none;endFill=0;" edge="1" parent="1" source="2c924340bb9dbf6c-3" target="2c924340bb9dbf6c-16">
          <mxGeometry relative="1" as="geometry" />
        </mxCell>
        <mxCell id="kLmcpJNhUuurr8Ud9r-Z-118" style="edgeStyle=none;rounded=0;orthogonalLoop=1;jettySize=auto;html=1;exitX=1;exitY=0.5;exitDx=0;exitDy=0;entryX=0.363;entryY=1.017;entryDx=0;entryDy=0;entryPerimeter=0;endArrow=none;endFill=0;" edge="1" parent="1" source="2c924340bb9dbf6c-3" target="2c924340bb9dbf6c-17">
          <mxGeometry relative="1" as="geometry" />
        </mxCell>
        <mxCell id="kLmcpJNhUuurr8Ud9r-Z-119" style="edgeStyle=none;rounded=0;orthogonalLoop=1;jettySize=auto;html=1;entryX=0;entryY=0.75;entryDx=0;entryDy=0;endArrow=none;endFill=0;" edge="1" parent="1" source="2c924340bb9dbf6c-3" target="2c924340bb9dbf6c-18">
          <mxGeometry relative="1" as="geometry" />
        </mxCell>
        <mxCell id="kLmcpJNhUuurr8Ud9r-Z-122" style="edgeStyle=none;rounded=0;orthogonalLoop=1;jettySize=auto;html=1;entryX=0;entryY=0.5;entryDx=0;entryDy=0;endArrow=none;endFill=0;" edge="1" parent="1" source="2c924340bb9dbf6c-3" target="2c924340bb9dbf6c-19">
          <mxGeometry relative="1" as="geometry" />
        </mxCell>
        <mxCell id="kLmcpJNhUuurr8Ud9r-Z-123" style="edgeStyle=none;rounded=0;orthogonalLoop=1;jettySize=auto;html=1;exitX=0;exitY=0.5;exitDx=0;exitDy=0;entryX=0.65;entryY=0;entryDx=0;entryDy=0;entryPerimeter=0;endArrow=none;endFill=0;" edge="1" parent="1" source="2c924340bb9dbf6c-3" target="kLmcpJNhUuurr8Ud9r-Z-9">
          <mxGeometry relative="1" as="geometry" />
        </mxCell>
        <mxCell id="kLmcpJNhUuurr8Ud9r-Z-124" style="edgeStyle=none;rounded=0;orthogonalLoop=1;jettySize=auto;html=1;exitX=0;exitY=0.5;exitDx=0;exitDy=0;entryX=1;entryY=0.75;entryDx=0;entryDy=0;endArrow=none;endFill=0;" edge="1" parent="1" source="2c924340bb9dbf6c-3" target="kLmcpJNhUuurr8Ud9r-Z-10">
          <mxGeometry relative="1" as="geometry" />
        </mxCell>
        <mxCell id="kLmcpJNhUuurr8Ud9r-Z-125" style="edgeStyle=none;rounded=0;orthogonalLoop=1;jettySize=auto;html=1;entryX=0.979;entryY=0.883;entryDx=0;entryDy=0;entryPerimeter=0;endArrow=none;endFill=0;" edge="1" parent="1" source="2c924340bb9dbf6c-3" target="kLmcpJNhUuurr8Ud9r-Z-15">
          <mxGeometry relative="1" as="geometry" />
        </mxCell>
        <mxCell id="kLmcpJNhUuurr8Ud9r-Z-126" style="edgeStyle=none;rounded=0;orthogonalLoop=1;jettySize=auto;html=1;entryX=0.994;entryY=0.867;entryDx=0;entryDy=0;entryPerimeter=0;endArrow=none;endFill=0;" edge="1" parent="1" source="2c924340bb9dbf6c-3" target="kLmcpJNhUuurr8Ud9r-Z-14">
          <mxGeometry relative="1" as="geometry" />
        </mxCell>
        <mxCell id="kLmcpJNhUuurr8Ud9r-Z-129" style="edgeStyle=none;rounded=0;orthogonalLoop=1;jettySize=auto;html=1;exitX=1;exitY=1;exitDx=0;exitDy=0;entryX=0.043;entryY=-0.033;entryDx=0;entryDy=0;entryPerimeter=0;endArrow=none;endFill=0;" edge="1" parent="1" source="2c924340bb9dbf6c-3" target="kLmcpJNhUuurr8Ud9r-Z-6">
          <mxGeometry relative="1" as="geometry" />
        </mxCell>
        <mxCell id="2c924340bb9dbf6c-3" value="&lt;span&gt;Persons&lt;/span&gt;" style="ellipse;whiteSpace=wrap;html=1;rounded=1;shadow=1;comic=0;labelBackgroundColor=none;strokeWidth=2;fontFamily=Verdana;fontSize=12;align=center;" parent="1" vertex="1">
          <mxGeometry x="680" y="70" width="120" height="80" as="geometry" />
        </mxCell>
        <mxCell id="2c924340bb9dbf6c-8" value="&lt;span&gt;DateOfIssuing&lt;/span&gt;" style="whiteSpace=wrap;html=1;rounded=1;shadow=1;comic=0;labelBackgroundColor=none;strokeWidth=2;fontFamily=Verdana;fontSize=12;align=center;arcSize=50;" parent="1" vertex="1">
          <mxGeometry x="10" y="90" width="100" height="20" as="geometry" />
        </mxCell>
        <mxCell id="2c924340bb9dbf6c-9" value="&lt;span&gt;ExpiryDate&lt;/span&gt;" style="whiteSpace=wrap;html=1;rounded=1;shadow=1;comic=0;labelBackgroundColor=none;strokeWidth=2;fontFamily=Verdana;fontSize=12;align=center;arcSize=50;" parent="1" vertex="1">
          <mxGeometry x="20" y="120" width="100" height="20" as="geometry" />
        </mxCell>
        <mxCell id="2c924340bb9dbf6c-10" value="&lt;span&gt;&lt;u&gt;IDNumber&lt;/u&gt;&lt;/span&gt;" style="whiteSpace=wrap;html=1;rounded=1;shadow=1;comic=0;labelBackgroundColor=none;strokeWidth=2;fontFamily=Verdana;fontSize=12;align=center;arcSize=50;" parent="1" vertex="1">
          <mxGeometry x="90" y="30" width="120" height="20" as="geometry" />
        </mxCell>
        <mxCell id="2c924340bb9dbf6c-14" value="&lt;span&gt;&lt;u&gt;PersonID&lt;/u&gt;&lt;/span&gt;" style="whiteSpace=wrap;html=1;rounded=1;shadow=1;comic=0;labelBackgroundColor=none;strokeWidth=2;fontFamily=Verdana;fontSize=12;align=center;arcSize=50;" parent="1" vertex="1">
          <mxGeometry x="700" y="10" width="100" height="20" as="geometry" />
        </mxCell>
        <mxCell id="2c924340bb9dbf6c-15" value="&lt;span&gt;Name&lt;/span&gt;" style="whiteSpace=wrap;html=1;rounded=1;shadow=1;comic=0;labelBackgroundColor=none;strokeWidth=2;fontFamily=Verdana;fontSize=12;align=center;arcSize=50;" parent="1" vertex="1">
          <mxGeometry x="810" y="20" width="100" height="20" as="geometry" />
        </mxCell>
        <mxCell id="2c924340bb9dbf6c-16" value="&lt;span&gt;Surname&lt;/span&gt;" style="whiteSpace=wrap;html=1;rounded=1;shadow=1;comic=0;labelBackgroundColor=none;strokeWidth=2;fontFamily=Verdana;fontSize=12;align=center;arcSize=50;" parent="1" vertex="1">
          <mxGeometry x="850" y="50" width="100" height="20" as="geometry" />
        </mxCell>
        <mxCell id="2c924340bb9dbf6c-17" value="&lt;span&gt;Gender&lt;/span&gt;" style="whiteSpace=wrap;html=1;rounded=1;shadow=1;comic=0;labelBackgroundColor=none;strokeWidth=2;fontFamily=Verdana;fontSize=12;align=center;arcSize=50;" parent="1" vertex="1">
          <mxGeometry x="850" y="80" width="100" height="20" as="geometry" />
        </mxCell>
        <mxCell id="2c924340bb9dbf6c-18" value="&lt;span&gt;AddressID&lt;/span&gt;" style="whiteSpace=wrap;html=1;rounded=1;shadow=1;comic=0;labelBackgroundColor=none;strokeWidth=2;fontFamily=Verdana;fontSize=12;align=center;arcSize=50;" parent="1" vertex="1">
          <mxGeometry x="845" y="110" width="100" height="20" as="geometry" />
        </mxCell>
        <mxCell id="2c924340bb9dbf6c-19" value="DateOfBirth" style="whiteSpace=wrap;html=1;rounded=1;shadow=1;comic=0;labelBackgroundColor=none;strokeWidth=2;fontFamily=Verdana;fontSize=12;align=center;arcSize=50;" parent="1" vertex="1">
          <mxGeometry x="825" y="140" width="100" height="20" as="geometry" />
        </mxCell>
        <mxCell id="2c924340bb9dbf6c-24" value="owns" style="rhombus;whiteSpace=wrap;html=1;rounded=0;shadow=1;comic=0;labelBackgroundColor=none;strokeWidth=2;fontFamily=Verdana;fontSize=12;align=center;" parent="1" vertex="1">
          <mxGeometry x="390" y="70" width="80" height="80" as="geometry" />
        </mxCell>
        <mxCell id="kLmcpJNhUuurr8Ud9r-Z-6" value="PlaceOfBirth" style="whiteSpace=wrap;html=1;rounded=1;shadow=1;comic=0;labelBackgroundColor=none;strokeWidth=2;fontFamily=Verdana;fontSize=12;align=center;arcSize=50;" vertex="1" parent="1">
          <mxGeometry x="795" y="170" width="100" height="20" as="geometry" />
        </mxCell>
        <mxCell id="kLmcpJNhUuurr8Ud9r-Z-8" value="MaritalStatus" style="whiteSpace=wrap;html=1;rounded=1;shadow=1;comic=0;labelBackgroundColor=none;strokeWidth=2;fontFamily=Verdana;fontSize=12;align=center;arcSize=50;" vertex="1" parent="1">
          <mxGeometry x="610" y="150" width="100" height="20" as="geometry" />
        </mxCell>
        <mxCell id="kLmcpJNhUuurr8Ud9r-Z-9" value="DateOfMarriage" style="whiteSpace=wrap;html=1;rounded=1;shadow=1;comic=0;labelBackgroundColor=none;strokeWidth=2;fontFamily=Verdana;fontSize=12;align=center;arcSize=50;" vertex="1" parent="1">
          <mxGeometry x="565" y="120" width="100" height="20" as="geometry" />
        </mxCell>
        <mxCell id="kLmcpJNhUuurr8Ud9r-Z-10" value="PlaceOfMarrriage" style="whiteSpace=wrap;html=1;rounded=1;shadow=1;comic=0;labelBackgroundColor=none;strokeWidth=2;fontFamily=Verdana;fontSize=12;align=center;arcSize=50;" vertex="1" parent="1">
          <mxGeometry x="550" y="70" width="110" height="20" as="geometry" />
        </mxCell>
        <mxCell id="kLmcpJNhUuurr8Ud9r-Z-14" value="Citizenship" style="whiteSpace=wrap;html=1;rounded=1;shadow=1;comic=0;labelBackgroundColor=none;strokeWidth=2;fontFamily=Verdana;fontSize=12;align=center;arcSize=50;" vertex="1" parent="1">
          <mxGeometry x="560" y="40" width="110" height="20" as="geometry" />
        </mxCell>
        <mxCell id="kLmcpJNhUuurr8Ud9r-Z-15" value="IDNumber" style="whiteSpace=wrap;html=1;rounded=1;shadow=1;comic=0;labelBackgroundColor=none;strokeWidth=2;fontFamily=Verdana;fontSize=12;align=center;arcSize=50;" vertex="1" parent="1">
          <mxGeometry x="575" y="10" width="110" height="20" as="geometry" />
        </mxCell>
        <mxCell id="kLmcpJNhUuurr8Ud9r-Z-80" style="edgeStyle=none;rounded=0;orthogonalLoop=1;jettySize=auto;html=1;entryX=0;entryY=0;entryDx=0;entryDy=0;endArrow=none;endFill=0;" edge="1" parent="1" source="kLmcpJNhUuurr8Ud9r-Z-20" target="kLmcpJNhUuurr8Ud9r-Z-27">
          <mxGeometry relative="1" as="geometry" />
        </mxCell>
        <mxCell id="kLmcpJNhUuurr8Ud9r-Z-160" style="edgeStyle=none;rounded=0;orthogonalLoop=1;jettySize=auto;html=1;exitX=0;exitY=1;exitDx=0;exitDy=0;entryX=1;entryY=0.5;entryDx=0;entryDy=0;endArrow=none;endFill=0;" edge="1" parent="1" source="kLmcpJNhUuurr8Ud9r-Z-20" target="kLmcpJNhUuurr8Ud9r-Z-25">
          <mxGeometry relative="1" as="geometry" />
        </mxCell>
        <mxCell id="kLmcpJNhUuurr8Ud9r-Z-161" style="edgeStyle=none;rounded=0;orthogonalLoop=1;jettySize=auto;html=1;exitX=0;exitY=0.5;exitDx=0;exitDy=0;entryX=1;entryY=0.5;entryDx=0;entryDy=0;endArrow=none;endFill=0;" edge="1" parent="1" source="kLmcpJNhUuurr8Ud9r-Z-20" target="kLmcpJNhUuurr8Ud9r-Z-24">
          <mxGeometry relative="1" as="geometry" />
        </mxCell>
        <mxCell id="kLmcpJNhUuurr8Ud9r-Z-162" style="edgeStyle=none;rounded=0;orthogonalLoop=1;jettySize=auto;html=1;exitX=0;exitY=0;exitDx=0;exitDy=0;endArrow=none;endFill=0;" edge="1" parent="1" source="kLmcpJNhUuurr8Ud9r-Z-20" target="kLmcpJNhUuurr8Ud9r-Z-23">
          <mxGeometry relative="1" as="geometry" />
        </mxCell>
        <mxCell id="kLmcpJNhUuurr8Ud9r-Z-163" style="edgeStyle=none;rounded=0;orthogonalLoop=1;jettySize=auto;html=1;exitX=0.5;exitY=0;exitDx=0;exitDy=0;entryX=0.702;entryY=1.021;entryDx=0;entryDy=0;entryPerimeter=0;endArrow=none;endFill=0;" edge="1" parent="1" source="kLmcpJNhUuurr8Ud9r-Z-20" target="kLmcpJNhUuurr8Ud9r-Z-22">
          <mxGeometry relative="1" as="geometry" />
        </mxCell>
        <mxCell id="kLmcpJNhUuurr8Ud9r-Z-20" value="StagesOfCOA" style="ellipse;whiteSpace=wrap;html=1;rounded=1;shadow=1;comic=0;labelBackgroundColor=none;strokeWidth=2;fontFamily=Verdana;fontSize=12;align=center;" vertex="1" parent="1">
          <mxGeometry x="140" y="365" width="120" height="80" as="geometry" />
        </mxCell>
        <mxCell id="kLmcpJNhUuurr8Ud9r-Z-79" style="edgeStyle=none;rounded=0;orthogonalLoop=1;jettySize=auto;html=1;exitX=1;exitY=0.5;exitDx=0;exitDy=0;entryX=0.017;entryY=0.328;entryDx=0;entryDy=0;endArrow=none;endFill=0;entryPerimeter=0;" edge="1" parent="1" source="kLmcpJNhUuurr8Ud9r-Z-21" target="kLmcpJNhUuurr8Ud9r-Z-27">
          <mxGeometry relative="1" as="geometry" />
        </mxCell>
        <mxCell id="kLmcpJNhUuurr8Ud9r-Z-195" value="&lt;font style=&quot;font-size: 15px&quot;&gt;JOIN&lt;/font&gt;" style="edgeLabel;html=1;align=center;verticalAlign=middle;resizable=0;points=[];" vertex="1" connectable="0" parent="kLmcpJNhUuurr8Ud9r-Z-79">
          <mxGeometry x="-0.1117" y="-2" relative="1" as="geometry">
            <mxPoint as="offset" />
          </mxGeometry>
        </mxCell>
        <mxCell id="kLmcpJNhUuurr8Ud9r-Z-164" style="edgeStyle=none;rounded=0;orthogonalLoop=1;jettySize=auto;html=1;exitX=0;exitY=0;exitDx=0;exitDy=0;entryX=0.855;entryY=0.986;entryDx=0;entryDy=0;entryPerimeter=0;endArrow=none;endFill=0;" edge="1" parent="1" source="kLmcpJNhUuurr8Ud9r-Z-21" target="kLmcpJNhUuurr8Ud9r-Z-28">
          <mxGeometry relative="1" as="geometry" />
        </mxCell>
        <mxCell id="kLmcpJNhUuurr8Ud9r-Z-166" style="edgeStyle=none;rounded=0;orthogonalLoop=1;jettySize=auto;html=1;exitX=0;exitY=0.5;exitDx=0;exitDy=0;entryX=1;entryY=0.75;entryDx=0;entryDy=0;endArrow=none;endFill=0;" edge="1" parent="1" source="kLmcpJNhUuurr8Ud9r-Z-21" target="kLmcpJNhUuurr8Ud9r-Z-29">
          <mxGeometry relative="1" as="geometry" />
        </mxCell>
        <mxCell id="kLmcpJNhUuurr8Ud9r-Z-21" value="Processes" style="ellipse;whiteSpace=wrap;html=1;rounded=1;shadow=1;comic=0;labelBackgroundColor=none;strokeWidth=2;fontFamily=Verdana;fontSize=12;align=center;" vertex="1" parent="1">
          <mxGeometry x="315" y="605" width="120" height="80" as="geometry" />
        </mxCell>
        <mxCell id="kLmcpJNhUuurr8Ud9r-Z-22" value="&lt;span&gt;&lt;u&gt;ProcessID&lt;/u&gt;&lt;/span&gt;" style="whiteSpace=wrap;html=1;rounded=1;shadow=1;comic=0;labelBackgroundColor=none;strokeWidth=2;fontFamily=Verdana;fontSize=12;align=center;arcSize=50;" vertex="1" parent="1">
          <mxGeometry x="80" y="335" width="100" height="20" as="geometry" />
        </mxCell>
        <mxCell id="kLmcpJNhUuurr8Ud9r-Z-23" value="&lt;span&gt;Received&lt;/span&gt;" style="whiteSpace=wrap;html=1;rounded=1;shadow=1;comic=0;labelBackgroundColor=none;strokeWidth=2;fontFamily=Verdana;fontSize=12;align=center;arcSize=50;" vertex="1" parent="1">
          <mxGeometry x="30" y="365" width="100" height="20" as="geometry" />
        </mxCell>
        <mxCell id="kLmcpJNhUuurr8Ud9r-Z-24" value="&lt;span&gt;DataProcessing&lt;/span&gt;" style="whiteSpace=wrap;html=1;rounded=1;shadow=1;comic=0;labelBackgroundColor=none;strokeWidth=2;fontFamily=Verdana;fontSize=12;align=center;arcSize=50;" vertex="1" parent="1">
          <mxGeometry x="20" y="395" width="100" height="20" as="geometry" />
        </mxCell>
        <mxCell id="kLmcpJNhUuurr8Ud9r-Z-25" value="&lt;span&gt;ReadyForMeeting&lt;/span&gt;" style="whiteSpace=wrap;html=1;rounded=1;shadow=1;comic=0;labelBackgroundColor=none;strokeWidth=2;fontFamily=Verdana;fontSize=12;align=center;arcSize=50;" vertex="1" parent="1">
          <mxGeometry x="20" y="425" width="120" height="20" as="geometry" />
        </mxCell>
        <mxCell id="kLmcpJNhUuurr8Ud9r-Z-77" style="edgeStyle=none;rounded=0;orthogonalLoop=1;jettySize=auto;html=1;endArrow=none;endFill=0;" edge="1" parent="1" source="kLmcpJNhUuurr8Ud9r-Z-27" target="kLmcpJNhUuurr8Ud9r-Z-72">
          <mxGeometry relative="1" as="geometry" />
        </mxCell>
        <mxCell id="kLmcpJNhUuurr8Ud9r-Z-82" style="edgeStyle=none;rounded=0;orthogonalLoop=1;jettySize=auto;html=1;exitX=0.288;exitY=0.07;exitDx=0;exitDy=0;entryX=0.5;entryY=1;entryDx=0;entryDy=0;endArrow=none;endFill=0;exitPerimeter=0;" edge="1" parent="1" source="kLmcpJNhUuurr8Ud9r-Z-27" target="2c924340bb9dbf6c-3">
          <mxGeometry relative="1" as="geometry" />
        </mxCell>
        <mxCell id="kLmcpJNhUuurr8Ud9r-Z-88" style="edgeStyle=none;rounded=0;orthogonalLoop=1;jettySize=auto;html=1;entryX=0;entryY=1;entryDx=0;entryDy=0;endArrow=none;endFill=0;" edge="1" parent="1" source="kLmcpJNhUuurr8Ud9r-Z-27" target="kLmcpJNhUuurr8Ud9r-Z-63">
          <mxGeometry relative="1" as="geometry" />
        </mxCell>
        <mxCell id="kLmcpJNhUuurr8Ud9r-Z-90" style="edgeStyle=none;rounded=0;orthogonalLoop=1;jettySize=auto;html=1;entryX=0;entryY=1;entryDx=0;entryDy=0;endArrow=none;endFill=0;startArrow=none;" edge="1" parent="1" source="kLmcpJNhUuurr8Ud9r-Z-100" target="kLmcpJNhUuurr8Ud9r-Z-58">
          <mxGeometry relative="1" as="geometry" />
        </mxCell>
        <mxCell id="kLmcpJNhUuurr8Ud9r-Z-91" style="edgeStyle=none;rounded=0;orthogonalLoop=1;jettySize=auto;html=1;endArrow=none;endFill=0;entryX=0.338;entryY=0.973;entryDx=0;entryDy=0;entryPerimeter=0;" edge="1" parent="1" source="kLmcpJNhUuurr8Ud9r-Z-27" target="kLmcpJNhUuurr8Ud9r-Z-53">
          <mxGeometry relative="1" as="geometry" />
        </mxCell>
        <mxCell id="kLmcpJNhUuurr8Ud9r-Z-142" style="edgeStyle=none;rounded=0;orthogonalLoop=1;jettySize=auto;html=1;exitX=0;exitY=0.5;exitDx=0;exitDy=0;entryX=1.003;entryY=0.65;entryDx=0;entryDy=0;entryPerimeter=0;endArrow=none;endFill=0;" edge="1" parent="1" source="kLmcpJNhUuurr8Ud9r-Z-27" target="kLmcpJNhUuurr8Ud9r-Z-34">
          <mxGeometry relative="1" as="geometry" />
        </mxCell>
        <mxCell id="kLmcpJNhUuurr8Ud9r-Z-143" style="edgeStyle=none;rounded=0;orthogonalLoop=1;jettySize=auto;html=1;exitX=0;exitY=0.5;exitDx=0;exitDy=0;entryX=0.58;entryY=0.05;entryDx=0;entryDy=0;entryPerimeter=0;endArrow=none;endFill=0;" edge="1" parent="1" source="kLmcpJNhUuurr8Ud9r-Z-27" target="kLmcpJNhUuurr8Ud9r-Z-35">
          <mxGeometry relative="1" as="geometry">
            <Array as="points">
              <mxPoint x="805" y="750" />
            </Array>
          </mxGeometry>
        </mxCell>
        <mxCell id="kLmcpJNhUuurr8Ud9r-Z-144" style="edgeStyle=none;rounded=0;orthogonalLoop=1;jettySize=auto;html=1;exitX=0;exitY=1;exitDx=0;exitDy=0;entryX=0.591;entryY=0.017;entryDx=0;entryDy=0;entryPerimeter=0;endArrow=none;endFill=0;" edge="1" parent="1" source="kLmcpJNhUuurr8Ud9r-Z-27" target="kLmcpJNhUuurr8Ud9r-Z-36">
          <mxGeometry relative="1" as="geometry" />
        </mxCell>
        <mxCell id="kLmcpJNhUuurr8Ud9r-Z-145" style="edgeStyle=none;rounded=0;orthogonalLoop=1;jettySize=auto;html=1;exitX=0.5;exitY=1;exitDx=0;exitDy=0;entryX=0.293;entryY=0;entryDx=0;entryDy=0;entryPerimeter=0;endArrow=none;endFill=0;" edge="1" parent="1" source="kLmcpJNhUuurr8Ud9r-Z-27" target="kLmcpJNhUuurr8Ud9r-Z-38">
          <mxGeometry relative="1" as="geometry" />
        </mxCell>
        <mxCell id="kLmcpJNhUuurr8Ud9r-Z-148" style="edgeStyle=none;rounded=0;orthogonalLoop=1;jettySize=auto;html=1;exitX=1;exitY=1;exitDx=0;exitDy=0;entryX=0.05;entryY=-0.017;entryDx=0;entryDy=0;entryPerimeter=0;endArrow=none;endFill=0;" edge="1" parent="1" source="kLmcpJNhUuurr8Ud9r-Z-27" target="kLmcpJNhUuurr8Ud9r-Z-33">
          <mxGeometry relative="1" as="geometry" />
        </mxCell>
        <mxCell id="kLmcpJNhUuurr8Ud9r-Z-149" style="edgeStyle=none;rounded=0;orthogonalLoop=1;jettySize=auto;html=1;exitX=0.948;exitY=0.777;exitDx=0;exitDy=0;entryX=0.116;entryY=-0.057;entryDx=0;entryDy=0;endArrow=none;endFill=0;exitPerimeter=0;entryPerimeter=0;" edge="1" parent="1" source="kLmcpJNhUuurr8Ud9r-Z-27" target="kLmcpJNhUuurr8Ud9r-Z-32">
          <mxGeometry relative="1" as="geometry" />
        </mxCell>
        <mxCell id="kLmcpJNhUuurr8Ud9r-Z-151" style="edgeStyle=none;rounded=0;orthogonalLoop=1;jettySize=auto;html=1;exitX=1;exitY=0.5;exitDx=0;exitDy=0;entryX=0;entryY=0.75;entryDx=0;entryDy=0;endArrow=none;endFill=0;" edge="1" parent="1" source="kLmcpJNhUuurr8Ud9r-Z-27" target="kLmcpJNhUuurr8Ud9r-Z-39">
          <mxGeometry relative="1" as="geometry" />
        </mxCell>
        <mxCell id="kLmcpJNhUuurr8Ud9r-Z-27" value="ChangesOfAddresses" style="ellipse;whiteSpace=wrap;html=1;rounded=1;shadow=1;comic=0;labelBackgroundColor=none;strokeWidth=2;fontFamily=Verdana;fontSize=12;align=center;" vertex="1" parent="1">
          <mxGeometry x="805" y="705" width="140" height="80" as="geometry" />
        </mxCell>
        <mxCell id="kLmcpJNhUuurr8Ud9r-Z-28" value="&lt;span&gt;&lt;u&gt;ProcessID&lt;/u&gt;&lt;/span&gt;" style="whiteSpace=wrap;html=1;rounded=1;shadow=1;comic=0;labelBackgroundColor=none;strokeWidth=2;fontFamily=Verdana;fontSize=12;align=center;arcSize=50;" vertex="1" parent="1">
          <mxGeometry x="210" y="585" width="100" height="20" as="geometry" />
        </mxCell>
        <mxCell id="kLmcpJNhUuurr8Ud9r-Z-29" value="&lt;span&gt;Type&lt;/span&gt;" style="whiteSpace=wrap;html=1;rounded=1;shadow=1;comic=0;labelBackgroundColor=none;strokeWidth=2;fontFamily=Verdana;fontSize=12;align=center;arcSize=50;" vertex="1" parent="1">
          <mxGeometry x="200" y="625" width="100" height="20" as="geometry" />
        </mxCell>
        <mxCell id="kLmcpJNhUuurr8Ud9r-Z-188" value="" style="edgeStyle=none;rounded=0;orthogonalLoop=1;jettySize=auto;html=1;endArrow=none;endFill=0;" edge="1" parent="1" source="kLmcpJNhUuurr8Ud9r-Z-31" target="kLmcpJNhUuurr8Ud9r-Z-27">
          <mxGeometry relative="1" as="geometry" />
        </mxCell>
        <mxCell id="kLmcpJNhUuurr8Ud9r-Z-31" value="&lt;span&gt;PersonID&lt;/span&gt;" style="whiteSpace=wrap;html=1;rounded=1;shadow=1;comic=0;labelBackgroundColor=none;strokeWidth=2;fontFamily=Verdana;fontSize=12;align=center;arcSize=50;" vertex="1" parent="1">
          <mxGeometry x="965" y="755" width="100" height="20" as="geometry" />
        </mxCell>
        <mxCell id="kLmcpJNhUuurr8Ud9r-Z-32" value="&lt;span&gt;MoveInData&lt;/span&gt;" style="whiteSpace=wrap;html=1;rounded=1;shadow=1;comic=0;labelBackgroundColor=none;strokeWidth=2;fontFamily=Verdana;fontSize=12;align=center;arcSize=50;" vertex="1" parent="1">
          <mxGeometry x="965" y="790" width="100" height="20" as="geometry" />
        </mxCell>
        <mxCell id="kLmcpJNhUuurr8Ud9r-Z-33" value="&lt;span&gt;OldAddressID&lt;/span&gt;" style="whiteSpace=wrap;html=1;rounded=1;shadow=1;comic=0;labelBackgroundColor=none;strokeWidth=2;fontFamily=Verdana;fontSize=12;align=center;arcSize=50;" vertex="1" parent="1">
          <mxGeometry x="965" y="820" width="100" height="20" as="geometry" />
        </mxCell>
        <mxCell id="kLmcpJNhUuurr8Ud9r-Z-34" value="&lt;span&gt;ProcessStages&lt;/span&gt;" style="whiteSpace=wrap;html=1;rounded=1;shadow=1;comic=0;labelBackgroundColor=none;strokeWidth=2;fontFamily=Verdana;fontSize=12;align=center;arcSize=50;" vertex="1" parent="1">
          <mxGeometry x="665" y="735" width="100" height="20" as="geometry" />
        </mxCell>
        <mxCell id="kLmcpJNhUuurr8Ud9r-Z-35" value="&lt;span&gt;AssigneeID&lt;/span&gt;" style="whiteSpace=wrap;html=1;rounded=1;shadow=1;comic=0;labelBackgroundColor=none;strokeWidth=2;fontFamily=Verdana;fontSize=12;align=center;arcSize=50;" vertex="1" parent="1">
          <mxGeometry x="700" y="765" width="100" height="20" as="geometry" />
        </mxCell>
        <mxCell id="kLmcpJNhUuurr8Ud9r-Z-36" value="&lt;span&gt;HouseProviderID&lt;/span&gt;" style="whiteSpace=wrap;html=1;rounded=1;shadow=1;comic=0;labelBackgroundColor=none;strokeWidth=2;fontFamily=Verdana;fontSize=12;align=center;arcSize=50;" vertex="1" parent="1">
          <mxGeometry x="715" y="800" width="110" height="20" as="geometry" />
        </mxCell>
        <mxCell id="kLmcpJNhUuurr8Ud9r-Z-37" value="&lt;span&gt;HouseOwnerID&lt;/span&gt;" style="whiteSpace=wrap;html=1;rounded=1;shadow=1;comic=0;labelBackgroundColor=none;strokeWidth=2;fontFamily=Verdana;fontSize=12;align=center;arcSize=50;" vertex="1" parent="1">
          <mxGeometry x="840" y="820" width="100" height="20" as="geometry" />
        </mxCell>
        <mxCell id="kLmcpJNhUuurr8Ud9r-Z-146" style="edgeStyle=none;rounded=0;orthogonalLoop=1;jettySize=auto;html=1;endArrow=none;endFill=0;" edge="1" parent="1" source="kLmcpJNhUuurr8Ud9r-Z-38" target="kLmcpJNhUuurr8Ud9r-Z-27">
          <mxGeometry relative="1" as="geometry" />
        </mxCell>
        <mxCell id="kLmcpJNhUuurr8Ud9r-Z-147" style="edgeStyle=none;rounded=0;orthogonalLoop=1;jettySize=auto;html=1;exitX=0.5;exitY=1;exitDx=0;exitDy=0;entryX=0.567;entryY=-0.033;entryDx=0;entryDy=0;entryPerimeter=0;endArrow=none;endFill=0;" edge="1" parent="1" source="kLmcpJNhUuurr8Ud9r-Z-38" target="kLmcpJNhUuurr8Ud9r-Z-37">
          <mxGeometry relative="1" as="geometry" />
        </mxCell>
        <mxCell id="kLmcpJNhUuurr8Ud9r-Z-38" value="&lt;span&gt;NewAddressID&lt;/span&gt;" style="whiteSpace=wrap;html=1;rounded=1;shadow=1;comic=0;labelBackgroundColor=none;strokeWidth=2;fontFamily=Verdana;fontSize=12;align=center;arcSize=50;" vertex="1" parent="1">
          <mxGeometry x="845" y="790" width="100" height="20" as="geometry" />
        </mxCell>
        <mxCell id="kLmcpJNhUuurr8Ud9r-Z-39" value="&lt;span&gt;&lt;u&gt;ProcessID&lt;/u&gt;&lt;/span&gt;" style="whiteSpace=wrap;html=1;rounded=1;shadow=1;comic=0;labelBackgroundColor=none;strokeWidth=2;fontFamily=Verdana;fontSize=12;align=center;arcSize=50;" vertex="1" parent="1">
          <mxGeometry x="980" y="725" width="100" height="20" as="geometry" />
        </mxCell>
        <mxCell id="kLmcpJNhUuurr8Ud9r-Z-152" style="edgeStyle=none;rounded=0;orthogonalLoop=1;jettySize=auto;html=1;entryX=0;entryY=0.75;entryDx=0;entryDy=0;endArrow=none;endFill=0;" edge="1" parent="1" source="kLmcpJNhUuurr8Ud9r-Z-41" target="kLmcpJNhUuurr8Ud9r-Z-51">
          <mxGeometry relative="1" as="geometry" />
        </mxCell>
        <mxCell id="kLmcpJNhUuurr8Ud9r-Z-153" style="edgeStyle=none;rounded=0;orthogonalLoop=1;jettySize=auto;html=1;exitX=1;exitY=0;exitDx=0;exitDy=0;entryX=0;entryY=0.5;entryDx=0;entryDy=0;endArrow=none;endFill=0;" edge="1" parent="1" source="kLmcpJNhUuurr8Ud9r-Z-41" target="kLmcpJNhUuurr8Ud9r-Z-46">
          <mxGeometry relative="1" as="geometry" />
        </mxCell>
        <mxCell id="kLmcpJNhUuurr8Ud9r-Z-154" style="edgeStyle=none;rounded=0;orthogonalLoop=1;jettySize=auto;html=1;exitX=1;exitY=0.5;exitDx=0;exitDy=0;entryX=0;entryY=0.5;entryDx=0;entryDy=0;endArrow=none;endFill=0;" edge="1" parent="1" source="kLmcpJNhUuurr8Ud9r-Z-41" target="kLmcpJNhUuurr8Ud9r-Z-47">
          <mxGeometry relative="1" as="geometry" />
        </mxCell>
        <mxCell id="kLmcpJNhUuurr8Ud9r-Z-155" style="edgeStyle=none;rounded=0;orthogonalLoop=1;jettySize=auto;html=1;exitX=1;exitY=1;exitDx=0;exitDy=0;entryX=0.03;entryY=0.25;entryDx=0;entryDy=0;entryPerimeter=0;endArrow=none;endFill=0;" edge="1" parent="1" source="kLmcpJNhUuurr8Ud9r-Z-41" target="kLmcpJNhUuurr8Ud9r-Z-48">
          <mxGeometry relative="1" as="geometry" />
        </mxCell>
        <mxCell id="kLmcpJNhUuurr8Ud9r-Z-156" style="edgeStyle=none;rounded=0;orthogonalLoop=1;jettySize=auto;html=1;exitX=0;exitY=0.5;exitDx=0;exitDy=0;entryX=0.5;entryY=0;entryDx=0;entryDy=0;endArrow=none;endFill=0;" edge="1" parent="1" source="kLmcpJNhUuurr8Ud9r-Z-41" target="kLmcpJNhUuurr8Ud9r-Z-52">
          <mxGeometry relative="1" as="geometry" />
        </mxCell>
        <mxCell id="kLmcpJNhUuurr8Ud9r-Z-157" style="edgeStyle=none;rounded=0;orthogonalLoop=1;jettySize=auto;html=1;exitX=0;exitY=1;exitDx=0;exitDy=0;entryX=0.5;entryY=0;entryDx=0;entryDy=0;endArrow=none;endFill=0;" edge="1" parent="1" source="kLmcpJNhUuurr8Ud9r-Z-41" target="kLmcpJNhUuurr8Ud9r-Z-49">
          <mxGeometry relative="1" as="geometry" />
        </mxCell>
        <mxCell id="kLmcpJNhUuurr8Ud9r-Z-158" style="edgeStyle=none;rounded=0;orthogonalLoop=1;jettySize=auto;html=1;exitX=0.5;exitY=1;exitDx=0;exitDy=0;entryX=0.5;entryY=0;entryDx=0;entryDy=0;endArrow=none;endFill=0;" edge="1" parent="1" source="kLmcpJNhUuurr8Ud9r-Z-41" target="kLmcpJNhUuurr8Ud9r-Z-50">
          <mxGeometry relative="1" as="geometry" />
        </mxCell>
        <mxCell id="kLmcpJNhUuurr8Ud9r-Z-41" value="Addresses" style="ellipse;whiteSpace=wrap;html=1;rounded=1;shadow=1;comic=0;labelBackgroundColor=none;strokeWidth=2;fontFamily=Verdana;fontSize=12;align=center;" vertex="1" parent="1">
          <mxGeometry x="1900" y="635" width="120" height="80" as="geometry" />
        </mxCell>
        <mxCell id="kLmcpJNhUuurr8Ud9r-Z-46" value="&lt;span&gt;Street&lt;/span&gt;" style="whiteSpace=wrap;html=1;rounded=1;shadow=1;comic=0;labelBackgroundColor=none;strokeWidth=2;fontFamily=Verdana;fontSize=12;align=center;arcSize=50;" vertex="1" parent="1">
          <mxGeometry x="2020" y="635" width="100" height="20" as="geometry" />
        </mxCell>
        <mxCell id="kLmcpJNhUuurr8Ud9r-Z-47" value="&lt;span&gt;StreetNumber&lt;/span&gt;" style="whiteSpace=wrap;html=1;rounded=1;shadow=1;comic=0;labelBackgroundColor=none;strokeWidth=2;fontFamily=Verdana;fontSize=12;align=center;arcSize=50;" vertex="1" parent="1">
          <mxGeometry x="2050" y="665" width="100" height="20" as="geometry" />
        </mxCell>
        <mxCell id="kLmcpJNhUuurr8Ud9r-Z-48" value="&lt;span&gt;SecondLine&lt;/span&gt;" style="whiteSpace=wrap;html=1;rounded=1;shadow=1;comic=0;labelBackgroundColor=none;strokeWidth=2;fontFamily=Verdana;fontSize=12;align=center;arcSize=50;" vertex="1" parent="1">
          <mxGeometry x="2030" y="695" width="100" height="20" as="geometry" />
        </mxCell>
        <mxCell id="kLmcpJNhUuurr8Ud9r-Z-49" value="&lt;span&gt;City&lt;/span&gt;" style="whiteSpace=wrap;html=1;rounded=1;shadow=1;comic=0;labelBackgroundColor=none;strokeWidth=2;fontFamily=Verdana;fontSize=12;align=center;arcSize=50;" vertex="1" parent="1">
          <mxGeometry x="1850" y="725" width="100" height="20" as="geometry" />
        </mxCell>
        <mxCell id="kLmcpJNhUuurr8Ud9r-Z-50" value="&lt;span&gt;Postcode&lt;/span&gt;" style="whiteSpace=wrap;html=1;rounded=1;shadow=1;comic=0;labelBackgroundColor=none;strokeWidth=2;fontFamily=Verdana;fontSize=12;align=center;arcSize=50;" vertex="1" parent="1">
          <mxGeometry x="1965" y="725" width="100" height="20" as="geometry" />
        </mxCell>
        <mxCell id="kLmcpJNhUuurr8Ud9r-Z-51" value="&lt;span&gt;&lt;u&gt;AddressID&lt;/u&gt;&lt;/span&gt;" style="whiteSpace=wrap;html=1;rounded=1;shadow=1;comic=0;labelBackgroundColor=none;strokeWidth=2;fontFamily=Verdana;fontSize=12;align=center;arcSize=50;" vertex="1" parent="1">
          <mxGeometry x="2005" y="610" width="100" height="20" as="geometry" />
        </mxCell>
        <mxCell id="kLmcpJNhUuurr8Ud9r-Z-52" value="&lt;span&gt;Country&lt;/span&gt;" style="whiteSpace=wrap;html=1;rounded=1;shadow=1;comic=0;labelBackgroundColor=none;strokeWidth=2;fontFamily=Verdana;fontSize=12;align=center;arcSize=50;" vertex="1" parent="1">
          <mxGeometry x="1800" y="695" width="100" height="20" as="geometry" />
        </mxCell>
        <mxCell id="kLmcpJNhUuurr8Ud9r-Z-75" style="edgeStyle=none;rounded=0;orthogonalLoop=1;jettySize=auto;html=1;exitX=0;exitY=1;exitDx=0;exitDy=0;entryX=1;entryY=0;entryDx=0;entryDy=0;endArrow=none;endFill=0;" edge="1" parent="1" source="kLmcpJNhUuurr8Ud9r-Z-53" target="kLmcpJNhUuurr8Ud9r-Z-72">
          <mxGeometry relative="1" as="geometry" />
        </mxCell>
        <mxCell id="kLmcpJNhUuurr8Ud9r-Z-130" style="edgeStyle=none;rounded=0;orthogonalLoop=1;jettySize=auto;html=1;exitX=0.5;exitY=0;exitDx=0;exitDy=0;entryX=0.303;entryY=1.117;entryDx=0;entryDy=0;entryPerimeter=0;endArrow=none;endFill=0;" edge="1" parent="1" source="kLmcpJNhUuurr8Ud9r-Z-53" target="kLmcpJNhUuurr8Ud9r-Z-54">
          <mxGeometry relative="1" as="geometry" />
        </mxCell>
        <mxCell id="kLmcpJNhUuurr8Ud9r-Z-131" style="edgeStyle=none;rounded=0;orthogonalLoop=1;jettySize=auto;html=1;entryX=0;entryY=0.5;entryDx=0;entryDy=0;endArrow=none;endFill=0;" edge="1" parent="1" source="kLmcpJNhUuurr8Ud9r-Z-53" target="kLmcpJNhUuurr8Ud9r-Z-55">
          <mxGeometry relative="1" as="geometry" />
        </mxCell>
        <mxCell id="kLmcpJNhUuurr8Ud9r-Z-132" style="edgeStyle=none;rounded=0;orthogonalLoop=1;jettySize=auto;html=1;exitX=1;exitY=0.5;exitDx=0;exitDy=0;entryX=0;entryY=0.5;entryDx=0;entryDy=0;endArrow=none;endFill=0;" edge="1" parent="1" source="kLmcpJNhUuurr8Ud9r-Z-53" target="kLmcpJNhUuurr8Ud9r-Z-56">
          <mxGeometry relative="1" as="geometry" />
        </mxCell>
        <mxCell id="kLmcpJNhUuurr8Ud9r-Z-133" style="edgeStyle=none;rounded=0;orthogonalLoop=1;jettySize=auto;html=1;exitX=1;exitY=1;exitDx=0;exitDy=0;entryX=0;entryY=0.5;entryDx=0;entryDy=0;endArrow=none;endFill=0;" edge="1" parent="1" source="kLmcpJNhUuurr8Ud9r-Z-53" target="kLmcpJNhUuurr8Ud9r-Z-57">
          <mxGeometry relative="1" as="geometry" />
        </mxCell>
        <mxCell id="kLmcpJNhUuurr8Ud9r-Z-53" value="HouseProviders" style="ellipse;whiteSpace=wrap;html=1;rounded=1;shadow=1;comic=0;labelBackgroundColor=none;strokeWidth=2;fontFamily=Verdana;fontSize=12;align=center;" vertex="1" parent="1">
          <mxGeometry x="1360" y="90" width="120" height="80" as="geometry" />
        </mxCell>
        <mxCell id="kLmcpJNhUuurr8Ud9r-Z-54" value="&lt;span&gt;&lt;u&gt;ProviderID&lt;/u&gt;&lt;/span&gt;" style="whiteSpace=wrap;html=1;rounded=1;shadow=1;comic=0;labelBackgroundColor=none;strokeWidth=2;fontFamily=Verdana;fontSize=12;align=center;arcSize=50;" vertex="1" parent="1">
          <mxGeometry x="1390" y="60" width="100" height="20" as="geometry" />
        </mxCell>
        <mxCell id="kLmcpJNhUuurr8Ud9r-Z-55" value="&lt;span&gt;Name&lt;/span&gt;" style="whiteSpace=wrap;html=1;rounded=1;shadow=1;comic=0;labelBackgroundColor=none;strokeWidth=2;fontFamily=Verdana;fontSize=12;align=center;arcSize=50;" vertex="1" parent="1">
          <mxGeometry x="1490" y="90" width="100" height="20" as="geometry" />
        </mxCell>
        <mxCell id="kLmcpJNhUuurr8Ud9r-Z-56" value="&lt;span&gt;Summe&lt;/span&gt;" style="whiteSpace=wrap;html=1;rounded=1;shadow=1;comic=0;labelBackgroundColor=none;strokeWidth=2;fontFamily=Verdana;fontSize=12;align=center;arcSize=50;" vertex="1" parent="1">
          <mxGeometry x="1510" y="120" width="100" height="20" as="geometry" />
        </mxCell>
        <mxCell id="kLmcpJNhUuurr8Ud9r-Z-57" value="&lt;span&gt;AddressID&lt;/span&gt;" style="whiteSpace=wrap;html=1;rounded=1;shadow=1;comic=0;labelBackgroundColor=none;strokeWidth=2;fontFamily=Verdana;fontSize=12;align=center;arcSize=50;" vertex="1" parent="1">
          <mxGeometry x="1480" y="150" width="120" height="20" as="geometry" />
        </mxCell>
        <mxCell id="kLmcpJNhUuurr8Ud9r-Z-76" style="edgeStyle=none;rounded=0;orthogonalLoop=1;jettySize=auto;html=1;entryX=1;entryY=0.5;entryDx=0;entryDy=0;endArrow=none;endFill=0;" edge="1" parent="1" source="kLmcpJNhUuurr8Ud9r-Z-58" target="kLmcpJNhUuurr8Ud9r-Z-72">
          <mxGeometry relative="1" as="geometry" />
        </mxCell>
        <mxCell id="kLmcpJNhUuurr8Ud9r-Z-134" style="edgeStyle=none;rounded=0;orthogonalLoop=1;jettySize=auto;html=1;exitX=0.5;exitY=0;exitDx=0;exitDy=0;entryX=0.5;entryY=1;entryDx=0;entryDy=0;endArrow=none;endFill=0;" edge="1" parent="1" source="kLmcpJNhUuurr8Ud9r-Z-58" target="kLmcpJNhUuurr8Ud9r-Z-59">
          <mxGeometry relative="1" as="geometry" />
        </mxCell>
        <mxCell id="kLmcpJNhUuurr8Ud9r-Z-135" style="edgeStyle=none;rounded=0;orthogonalLoop=1;jettySize=auto;html=1;exitX=1;exitY=0;exitDx=0;exitDy=0;entryX=0;entryY=0.5;entryDx=0;entryDy=0;endArrow=none;endFill=0;" edge="1" parent="1" source="kLmcpJNhUuurr8Ud9r-Z-58" target="kLmcpJNhUuurr8Ud9r-Z-60">
          <mxGeometry relative="1" as="geometry" />
        </mxCell>
        <mxCell id="kLmcpJNhUuurr8Ud9r-Z-136" value="" style="edgeStyle=none;rounded=0;orthogonalLoop=1;jettySize=auto;html=1;endArrow=none;endFill=0;" edge="1" parent="1" source="kLmcpJNhUuurr8Ud9r-Z-58" target="kLmcpJNhUuurr8Ud9r-Z-61">
          <mxGeometry relative="1" as="geometry" />
        </mxCell>
        <mxCell id="kLmcpJNhUuurr8Ud9r-Z-137" style="edgeStyle=none;rounded=0;orthogonalLoop=1;jettySize=auto;html=1;exitX=1;exitY=1;exitDx=0;exitDy=0;entryX=0;entryY=0.5;entryDx=0;entryDy=0;endArrow=none;endFill=0;" edge="1" parent="1" source="kLmcpJNhUuurr8Ud9r-Z-58" target="kLmcpJNhUuurr8Ud9r-Z-62">
          <mxGeometry relative="1" as="geometry" />
        </mxCell>
        <mxCell id="kLmcpJNhUuurr8Ud9r-Z-58" value="HouseOwner" style="ellipse;whiteSpace=wrap;html=1;rounded=1;shadow=1;comic=0;labelBackgroundColor=none;strokeWidth=2;fontFamily=Verdana;fontSize=12;align=center;" vertex="1" parent="1">
          <mxGeometry x="1490" y="285" width="120" height="80" as="geometry" />
        </mxCell>
        <mxCell id="kLmcpJNhUuurr8Ud9r-Z-59" value="&lt;span&gt;&lt;u&gt;OwnerID&lt;/u&gt;&lt;/span&gt;" style="whiteSpace=wrap;html=1;rounded=1;shadow=1;comic=0;labelBackgroundColor=none;strokeWidth=2;fontFamily=Verdana;fontSize=12;align=center;arcSize=50;" vertex="1" parent="1">
          <mxGeometry x="1530" y="250" width="100" height="20" as="geometry" />
        </mxCell>
        <mxCell id="kLmcpJNhUuurr8Ud9r-Z-60" value="&lt;span&gt;Name&lt;/span&gt;" style="whiteSpace=wrap;html=1;rounded=1;shadow=1;comic=0;labelBackgroundColor=none;strokeWidth=2;fontFamily=Verdana;fontSize=12;align=center;arcSize=50;" vertex="1" parent="1">
          <mxGeometry x="1610" y="280" width="100" height="20" as="geometry" />
        </mxCell>
        <mxCell id="kLmcpJNhUuurr8Ud9r-Z-61" value="&lt;span&gt;Surname&lt;/span&gt;" style="whiteSpace=wrap;html=1;rounded=1;shadow=1;comic=0;labelBackgroundColor=none;strokeWidth=2;fontFamily=Verdana;fontSize=12;align=center;arcSize=50;" vertex="1" parent="1">
          <mxGeometry x="1630" y="310" width="100" height="20" as="geometry" />
        </mxCell>
        <mxCell id="kLmcpJNhUuurr8Ud9r-Z-62" value="&lt;span&gt;AddressID&lt;/span&gt;" style="whiteSpace=wrap;html=1;rounded=1;shadow=1;comic=0;labelBackgroundColor=none;strokeWidth=2;fontFamily=Verdana;fontSize=12;align=center;arcSize=50;" vertex="1" parent="1">
          <mxGeometry x="1620" y="340" width="120" height="20" as="geometry" />
        </mxCell>
        <mxCell id="kLmcpJNhUuurr8Ud9r-Z-78" style="edgeStyle=none;rounded=0;orthogonalLoop=1;jettySize=auto;html=1;endArrow=none;endFill=0;" edge="1" parent="1" source="kLmcpJNhUuurr8Ud9r-Z-63" target="kLmcpJNhUuurr8Ud9r-Z-72">
          <mxGeometry relative="1" as="geometry" />
        </mxCell>
        <mxCell id="kLmcpJNhUuurr8Ud9r-Z-138" style="edgeStyle=none;rounded=0;orthogonalLoop=1;jettySize=auto;html=1;exitX=0.5;exitY=0;exitDx=0;exitDy=0;entryX=0.533;entryY=0.967;entryDx=0;entryDy=0;entryPerimeter=0;endArrow=none;endFill=0;" edge="1" parent="1" source="kLmcpJNhUuurr8Ud9r-Z-63" target="kLmcpJNhUuurr8Ud9r-Z-64">
          <mxGeometry relative="1" as="geometry" />
        </mxCell>
        <mxCell id="kLmcpJNhUuurr8Ud9r-Z-139" style="edgeStyle=none;rounded=0;orthogonalLoop=1;jettySize=auto;html=1;exitX=1;exitY=0;exitDx=0;exitDy=0;endArrow=none;endFill=0;" edge="1" parent="1" source="kLmcpJNhUuurr8Ud9r-Z-63" target="kLmcpJNhUuurr8Ud9r-Z-65">
          <mxGeometry relative="1" as="geometry" />
        </mxCell>
        <mxCell id="kLmcpJNhUuurr8Ud9r-Z-140" style="edgeStyle=none;rounded=0;orthogonalLoop=1;jettySize=auto;html=1;exitX=1;exitY=0.5;exitDx=0;exitDy=0;endArrow=none;endFill=0;" edge="1" parent="1" source="kLmcpJNhUuurr8Ud9r-Z-63" target="kLmcpJNhUuurr8Ud9r-Z-66">
          <mxGeometry relative="1" as="geometry" />
        </mxCell>
        <mxCell id="kLmcpJNhUuurr8Ud9r-Z-141" style="edgeStyle=none;rounded=0;orthogonalLoop=1;jettySize=auto;html=1;exitX=1;exitY=1;exitDx=0;exitDy=0;endArrow=none;endFill=0;" edge="1" parent="1" source="kLmcpJNhUuurr8Ud9r-Z-63" target="kLmcpJNhUuurr8Ud9r-Z-67">
          <mxGeometry relative="1" as="geometry" />
        </mxCell>
        <mxCell id="kLmcpJNhUuurr8Ud9r-Z-63" value="Assignees" style="ellipse;whiteSpace=wrap;html=1;rounded=1;shadow=1;comic=0;labelBackgroundColor=none;strokeWidth=2;fontFamily=Verdana;fontSize=12;align=center;" vertex="1" parent="1">
          <mxGeometry x="1435" y="495" width="120" height="80" as="geometry" />
        </mxCell>
        <mxCell id="kLmcpJNhUuurr8Ud9r-Z-64" value="&lt;span&gt;&lt;u&gt;AssigneeID&lt;/u&gt;&lt;/span&gt;" style="whiteSpace=wrap;html=1;rounded=1;shadow=1;comic=0;labelBackgroundColor=none;strokeWidth=2;fontFamily=Verdana;fontSize=12;align=center;arcSize=50;" vertex="1" parent="1">
          <mxGeometry x="1475" y="460" width="100" height="20" as="geometry" />
        </mxCell>
        <mxCell id="kLmcpJNhUuurr8Ud9r-Z-65" value="&lt;span&gt;Name&lt;/span&gt;" style="whiteSpace=wrap;html=1;rounded=1;shadow=1;comic=0;labelBackgroundColor=none;strokeWidth=2;fontFamily=Verdana;fontSize=12;align=center;arcSize=50;" vertex="1" parent="1">
          <mxGeometry x="1555" y="490" width="100" height="20" as="geometry" />
        </mxCell>
        <mxCell id="kLmcpJNhUuurr8Ud9r-Z-66" value="&lt;span&gt;Surname&lt;/span&gt;" style="whiteSpace=wrap;html=1;rounded=1;shadow=1;comic=0;labelBackgroundColor=none;strokeWidth=2;fontFamily=Verdana;fontSize=12;align=center;arcSize=50;" vertex="1" parent="1">
          <mxGeometry x="1575" y="520" width="100" height="20" as="geometry" />
        </mxCell>
        <mxCell id="kLmcpJNhUuurr8Ud9r-Z-67" value="&lt;span&gt;AddressID&lt;/span&gt;" style="whiteSpace=wrap;html=1;rounded=1;shadow=1;comic=0;labelBackgroundColor=none;strokeWidth=2;fontFamily=Verdana;fontSize=12;align=center;arcSize=50;" vertex="1" parent="1">
          <mxGeometry x="1565" y="550" width="120" height="20" as="geometry" />
        </mxCell>
        <mxCell id="kLmcpJNhUuurr8Ud9r-Z-72" value="Addresses" style="ellipse;whiteSpace=wrap;html=1;rounded=1;shadow=1;comic=0;labelBackgroundColor=none;strokeWidth=2;fontFamily=Verdana;fontSize=12;align=center;" vertex="1" parent="1">
          <mxGeometry x="820" y="355" width="120" height="80" as="geometry" />
        </mxCell>
        <mxCell id="kLmcpJNhUuurr8Ud9r-Z-84" style="edgeStyle=none;rounded=0;orthogonalLoop=1;jettySize=auto;html=1;exitX=0.75;exitY=1;exitDx=0;exitDy=0;entryX=1;entryY=1;entryDx=0;entryDy=0;endArrow=none;endFill=0;" edge="1" parent="1" source="kLmcpJNhUuurr8Ud9r-Z-8" target="kLmcpJNhUuurr8Ud9r-Z-8">
          <mxGeometry relative="1" as="geometry" />
        </mxCell>
        <mxCell id="kLmcpJNhUuurr8Ud9r-Z-92" value="requests" style="rhombus;whiteSpace=wrap;html=1;rounded=0;shadow=1;comic=0;labelBackgroundColor=none;strokeWidth=2;fontFamily=Verdana;fontSize=12;align=center;" vertex="1" parent="1">
          <mxGeometry x="470" y="515" width="80" height="80" as="geometry" />
        </mxCell>
        <mxCell id="kLmcpJNhUuurr8Ud9r-Z-93" value="changes address" style="rhombus;whiteSpace=wrap;html=1;rounded=0;shadow=1;comic=0;labelBackgroundColor=none;strokeWidth=2;fontFamily=Verdana;fontSize=12;align=center;" vertex="1" parent="1">
          <mxGeometry x="760" y="415" width="80" height="80" as="geometry" />
        </mxCell>
        <mxCell id="kLmcpJNhUuurr8Ud9r-Z-96" value="lives at" style="rhombus;whiteSpace=wrap;html=1;rounded=0;shadow=1;comic=0;labelBackgroundColor=none;strokeWidth=2;fontFamily=Verdana;fontSize=12;align=center;" vertex="1" parent="1">
          <mxGeometry x="790" y="220" width="80" height="80" as="geometry" />
        </mxCell>
        <mxCell id="kLmcpJNhUuurr8Ud9r-Z-97" value="lives at" style="rhombus;whiteSpace=wrap;html=1;rounded=0;shadow=1;comic=0;labelBackgroundColor=none;strokeWidth=2;fontFamily=Verdana;fontSize=12;align=center;" vertex="1" parent="1">
          <mxGeometry x="1100" y="230" width="80" height="80" as="geometry" />
        </mxCell>
        <mxCell id="kLmcpJNhUuurr8Ud9r-Z-98" value="involved in" style="rhombus;whiteSpace=wrap;html=1;rounded=0;shadow=1;comic=0;labelBackgroundColor=none;strokeWidth=2;fontFamily=Verdana;fontSize=12;align=center;" vertex="1" parent="1">
          <mxGeometry x="840" y="510" width="80" height="80" as="geometry" />
        </mxCell>
        <mxCell id="kLmcpJNhUuurr8Ud9r-Z-99" value="associated with" style="rhombus;whiteSpace=wrap;html=1;rounded=0;shadow=1;comic=0;labelBackgroundColor=none;strokeWidth=2;fontFamily=Verdana;fontSize=12;align=center;" vertex="1" parent="1">
          <mxGeometry x="1020" y="510" width="80" height="80" as="geometry" />
        </mxCell>
        <mxCell id="kLmcpJNhUuurr8Ud9r-Z-100" value="associated with" style="rhombus;whiteSpace=wrap;html=1;rounded=0;shadow=1;comic=0;labelBackgroundColor=none;strokeWidth=2;fontFamily=Verdana;fontSize=12;align=center;" vertex="1" parent="1">
          <mxGeometry x="1170" y="500" width="80" height="80" as="geometry" />
        </mxCell>
        <mxCell id="kLmcpJNhUuurr8Ud9r-Z-101" value="" style="edgeStyle=none;rounded=0;orthogonalLoop=1;jettySize=auto;html=1;entryX=0;entryY=1;entryDx=0;entryDy=0;endArrow=none;endFill=0;" edge="1" parent="1" source="kLmcpJNhUuurr8Ud9r-Z-27" target="kLmcpJNhUuurr8Ud9r-Z-100">
          <mxGeometry relative="1" as="geometry">
            <mxPoint x="922.4718134733735" y="715.6037518676083" as="sourcePoint" />
            <mxPoint x="1507.5735931287832" y="353.28427124747736" as="targetPoint" />
          </mxGeometry>
        </mxCell>
        <mxCell id="kLmcpJNhUuurr8Ud9r-Z-102" value="associated with" style="rhombus;whiteSpace=wrap;html=1;rounded=0;shadow=1;comic=0;labelBackgroundColor=none;strokeWidth=2;fontFamily=Verdana;fontSize=12;align=center;" vertex="1" parent="1">
          <mxGeometry x="1150" y="610" width="80" height="80" as="geometry" />
        </mxCell>
        <mxCell id="kLmcpJNhUuurr8Ud9r-Z-103" value="lives at" style="rhombus;whiteSpace=wrap;html=1;rounded=0;shadow=1;comic=0;labelBackgroundColor=none;strokeWidth=2;fontFamily=Verdana;fontSize=12;align=center;" vertex="1" parent="1">
          <mxGeometry x="1150" y="420" width="80" height="80" as="geometry" />
        </mxCell>
        <mxCell id="kLmcpJNhUuurr8Ud9r-Z-104" value="lives at" style="rhombus;whiteSpace=wrap;html=1;rounded=0;shadow=1;comic=0;labelBackgroundColor=none;strokeWidth=2;fontFamily=Verdana;fontSize=12;align=center;" vertex="1" parent="1">
          <mxGeometry x="1250" y="320" width="80" height="80" as="geometry" />
        </mxCell>
        <mxCell id="kLmcpJNhUuurr8Ud9r-Z-159" value="Aus Platzgründen nicht mit Attributen in der Mitte abgebildet" style="rounded=0;whiteSpace=wrap;html=1;" vertex="1" parent="1">
          <mxGeometry x="1845" y="525" width="120" height="60" as="geometry" />
        </mxCell>
        <mxCell id="kLmcpJNhUuurr8Ud9r-Z-165" style="edgeStyle=none;rounded=0;orthogonalLoop=1;jettySize=auto;html=1;exitX=0.75;exitY=0;exitDx=0;exitDy=0;entryX=0.807;entryY=-0.083;entryDx=0;entryDy=0;entryPerimeter=0;endArrow=none;endFill=0;" edge="1" parent="1" source="kLmcpJNhUuurr8Ud9r-Z-28" target="kLmcpJNhUuurr8Ud9r-Z-28">
          <mxGeometry relative="1" as="geometry" />
        </mxCell>
        <mxCell id="kLmcpJNhUuurr8Ud9r-Z-167" value="1" style="text;html=1;resizable=0;autosize=1;align=center;verticalAlign=middle;points=[];fillColor=none;strokeColor=none;rounded=0;" vertex="1" parent="1">
          <mxGeometry x="640" y="90" width="20" height="20" as="geometry" />
        </mxCell>
        <mxCell id="kLmcpJNhUuurr8Ud9r-Z-168" value="1" style="text;html=1;resizable=0;autosize=1;align=center;verticalAlign=middle;points=[];fillColor=none;strokeColor=none;rounded=0;" vertex="1" parent="1">
          <mxGeometry x="270" y="90" width="20" height="20" as="geometry" />
        </mxCell>
        <mxCell id="kLmcpJNhUuurr8Ud9r-Z-169" value="1" style="text;html=1;resizable=0;autosize=1;align=center;verticalAlign=middle;points=[];fillColor=none;strokeColor=none;rounded=0;" vertex="1" parent="1">
          <mxGeometry x="850" y="335" width="20" height="20" as="geometry" />
        </mxCell>
        <mxCell id="kLmcpJNhUuurr8Ud9r-Z-170" value="1" style="text;html=1;resizable=0;autosize=1;align=center;verticalAlign=middle;points=[];fillColor=none;strokeColor=none;rounded=0;" vertex="1" parent="1">
          <mxGeometry x="825" y="685" width="20" height="20" as="geometry" />
        </mxCell>
        <mxCell id="kLmcpJNhUuurr8Ud9r-Z-171" value="1" style="text;html=1;resizable=0;autosize=1;align=center;verticalAlign=middle;points=[];fillColor=none;strokeColor=none;rounded=0;" vertex="1" parent="1">
          <mxGeometry x="945" y="370" width="20" height="20" as="geometry" />
        </mxCell>
        <mxCell id="kLmcpJNhUuurr8Ud9r-Z-172" value="1" style="text;html=1;resizable=0;autosize=1;align=center;verticalAlign=middle;points=[];fillColor=none;strokeColor=none;rounded=0;" vertex="1" parent="1">
          <mxGeometry x="920" y="340" width="20" height="20" as="geometry" />
        </mxCell>
        <mxCell id="kLmcpJNhUuurr8Ud9r-Z-173" value="1" style="text;html=1;resizable=0;autosize=1;align=center;verticalAlign=middle;points=[];fillColor=none;strokeColor=none;rounded=0;" vertex="1" parent="1">
          <mxGeometry x="950" y="395" width="20" height="20" as="geometry" />
        </mxCell>
        <mxCell id="kLmcpJNhUuurr8Ud9r-Z-174" value="1" style="text;html=1;resizable=0;autosize=1;align=center;verticalAlign=middle;points=[];fillColor=none;strokeColor=none;rounded=0;" vertex="1" parent="1">
          <mxGeometry x="860" y="435" width="20" height="20" as="geometry" />
        </mxCell>
        <mxCell id="kLmcpJNhUuurr8Ud9r-Z-175" value="1" style="text;html=1;resizable=0;autosize=1;align=center;verticalAlign=middle;points=[];fillColor=none;strokeColor=none;rounded=0;" vertex="1" parent="1">
          <mxGeometry x="1475" y="345" width="20" height="20" as="geometry" />
        </mxCell>
        <mxCell id="kLmcpJNhUuurr8Ud9r-Z-176" value="1" style="text;html=1;resizable=0;autosize=1;align=center;verticalAlign=middle;points=[];fillColor=none;strokeColor=none;rounded=0;" vertex="1" parent="1">
          <mxGeometry x="1370" y="170" width="20" height="20" as="geometry" />
        </mxCell>
        <mxCell id="kLmcpJNhUuurr8Ud9r-Z-177" value="n" style="text;html=1;resizable=0;autosize=1;align=center;verticalAlign=middle;points=[];fillColor=none;strokeColor=none;rounded=0;" vertex="1" parent="1">
          <mxGeometry x="750" y="150" width="20" height="20" as="geometry" />
        </mxCell>
        <mxCell id="kLmcpJNhUuurr8Ud9r-Z-178" value="n" style="text;html=1;resizable=0;autosize=1;align=center;verticalAlign=middle;points=[];fillColor=none;strokeColor=none;rounded=0;" vertex="1" parent="1">
          <mxGeometry x="720" y="150" width="20" height="20" as="geometry" />
        </mxCell>
        <mxCell id="kLmcpJNhUuurr8Ud9r-Z-179" value="n" style="text;html=1;resizable=0;autosize=1;align=center;verticalAlign=middle;points=[];fillColor=none;strokeColor=none;rounded=0;" vertex="1" parent="1">
          <mxGeometry x="930" y="705" width="20" height="20" as="geometry" />
        </mxCell>
        <mxCell id="kLmcpJNhUuurr8Ud9r-Z-180" value="n" style="text;html=1;resizable=0;autosize=1;align=center;verticalAlign=middle;points=[];fillColor=none;strokeColor=none;rounded=0;" vertex="1" parent="1">
          <mxGeometry x="1340" y="150" width="20" height="20" as="geometry" />
        </mxCell>
        <mxCell id="kLmcpJNhUuurr8Ud9r-Z-181" value="n" style="text;html=1;resizable=0;autosize=1;align=center;verticalAlign=middle;points=[];fillColor=none;strokeColor=none;rounded=0;" vertex="1" parent="1">
          <mxGeometry x="895" y="685" width="20" height="20" as="geometry" />
        </mxCell>
        <mxCell id="kLmcpJNhUuurr8Ud9r-Z-182" value="n" style="text;html=1;resizable=0;autosize=1;align=center;verticalAlign=middle;points=[];fillColor=none;strokeColor=none;rounded=0;" vertex="1" parent="1">
          <mxGeometry x="915" y="695" width="20" height="20" as="geometry" />
        </mxCell>
        <mxCell id="kLmcpJNhUuurr8Ud9r-Z-184" value="n" style="text;html=1;resizable=0;autosize=1;align=center;verticalAlign=middle;points=[];fillColor=none;strokeColor=none;rounded=0;" vertex="1" parent="1">
          <mxGeometry x="860" y="685" width="20" height="20" as="geometry" />
        </mxCell>
        <mxCell id="kLmcpJNhUuurr8Ud9r-Z-186" value="n" style="text;html=1;resizable=0;autosize=1;align=center;verticalAlign=middle;points=[];fillColor=none;strokeColor=none;rounded=0;" vertex="1" parent="1">
          <mxGeometry x="1420" y="500" width="20" height="20" as="geometry" />
        </mxCell>
        <mxCell id="kLmcpJNhUuurr8Ud9r-Z-187" value="n" style="text;html=1;resizable=0;autosize=1;align=center;verticalAlign=middle;points=[];fillColor=none;strokeColor=none;rounded=0;" vertex="1" parent="1">
          <mxGeometry x="1470" y="310" width="20" height="20" as="geometry" />
        </mxCell>
        <mxCell id="kLmcpJNhUuurr8Ud9r-Z-189" value="1" style="text;html=1;resizable=0;autosize=1;align=center;verticalAlign=middle;points=[];fillColor=none;strokeColor=none;rounded=0;" vertex="1" parent="1">
          <mxGeometry x="260" y="415" width="20" height="20" as="geometry" />
        </mxCell>
        <mxCell id="kLmcpJNhUuurr8Ud9r-Z-190" value="1" style="text;html=1;resizable=0;autosize=1;align=center;verticalAlign=middle;points=[];fillColor=none;strokeColor=none;rounded=0;" vertex="1" parent="1">
          <mxGeometry x="1420" y="550" width="20" height="20" as="geometry" />
        </mxCell>
        <mxCell id="kLmcpJNhUuurr8Ud9r-Z-193" value="1" style="text;html=1;resizable=0;autosize=1;align=center;verticalAlign=middle;points=[];fillColor=none;strokeColor=none;rounded=0;" vertex="1" parent="1">
          <mxGeometry x="805" y="695" width="20" height="20" as="geometry" />
        </mxCell>
      </root>
    </mxGraphModel>
  </diagram>
</mxfile>
